<mxfile host="app.diagrams.net" modified="2024-02-22T04:52:17.331Z" agent="Mozilla/5.0 (Windows NT 10.0; Win64; x64) AppleWebKit/537.36 (KHTML, like Gecko) Chrome/121.0.0.0 Safari/537.36" etag="r4RCLo2zMxJC9zKoK_15" version="23.1.5" type="github">
  <diagram name="Page-1" id="FYWUt24ZpTdFW-gtobVG">
    <mxGraphModel dx="1266" dy="694" grid="1" gridSize="10" guides="1" tooltips="1" connect="1" arrows="1" fold="1" page="1" pageScale="1" pageWidth="850" pageHeight="1100" math="0" shadow="0">
      <root>
        <mxCell id="0" />
        <mxCell id="1" parent="0" />
        <mxCell id="IX6t6DD36pY5l--hHVE1-1" style="edgeStyle=orthogonalEdgeStyle;rounded=0;orthogonalLoop=1;jettySize=auto;html=1;" parent="1" source="IX6t6DD36pY5l--hHVE1-2" target="IX6t6DD36pY5l--hHVE1-4" edge="1">
          <mxGeometry relative="1" as="geometry" />
        </mxCell>
        <mxCell id="IX6t6DD36pY5l--hHVE1-2" value="Start" style="rounded=1;whiteSpace=wrap;html=1;arcSize=50;" parent="1" vertex="1">
          <mxGeometry x="365" y="44" width="120" height="60" as="geometry" />
        </mxCell>
        <mxCell id="ezhr6PAOnXo2CEISF_8j-1" style="edgeStyle=orthogonalEdgeStyle;rounded=0;orthogonalLoop=1;jettySize=auto;html=1;entryX=0.5;entryY=0;entryDx=0;entryDy=0;" edge="1" parent="1" source="IX6t6DD36pY5l--hHVE1-4" target="IX6t6DD36pY5l--hHVE1-6">
          <mxGeometry relative="1" as="geometry" />
        </mxCell>
        <mxCell id="IX6t6DD36pY5l--hHVE1-4" value="Initialize Board/ &lt;br&gt;OLED/ Clock" style="rounded=0;whiteSpace=wrap;html=1;" parent="1" vertex="1">
          <mxGeometry x="365" y="150" width="120" height="60" as="geometry" />
        </mxCell>
        <mxCell id="IX6t6DD36pY5l--hHVE1-5" value="" style="edgeStyle=orthogonalEdgeStyle;rounded=0;orthogonalLoop=1;jettySize=auto;html=1;" parent="1" source="IX6t6DD36pY5l--hHVE1-6" target="IX6t6DD36pY5l--hHVE1-8" edge="1">
          <mxGeometry relative="1" as="geometry" />
        </mxCell>
        <mxCell id="IX6t6DD36pY5l--hHVE1-6" value="Define Parameters for LoRa" style="whiteSpace=wrap;html=1;rounded=0;" parent="1" vertex="1">
          <mxGeometry x="365" y="270" width="120" height="60" as="geometry" />
        </mxCell>
        <mxCell id="IX6t6DD36pY5l--hHVE1-7" value="" style="edgeStyle=orthogonalEdgeStyle;rounded=0;orthogonalLoop=1;jettySize=auto;html=1;" parent="1" source="IX6t6DD36pY5l--hHVE1-8" target="IX6t6DD36pY5l--hHVE1-13" edge="1">
          <mxGeometry relative="1" as="geometry" />
        </mxCell>
        <mxCell id="IX6t6DD36pY5l--hHVE1-8" value="Try To Initialize Radio with LoRa&amp;nbsp;" style="whiteSpace=wrap;html=1;rounded=0;" parent="1" vertex="1">
          <mxGeometry x="365" y="365" width="120" height="60" as="geometry" />
        </mxCell>
        <mxCell id="IX6t6DD36pY5l--hHVE1-9" value="" style="edgeStyle=orthogonalEdgeStyle;rounded=0;orthogonalLoop=1;jettySize=auto;html=1;" parent="1" source="IX6t6DD36pY5l--hHVE1-13" target="IX6t6DD36pY5l--hHVE1-15" edge="1">
          <mxGeometry relative="1" as="geometry" />
        </mxCell>
        <mxCell id="IX6t6DD36pY5l--hHVE1-10" value="Yes" style="edgeLabel;html=1;align=center;verticalAlign=middle;resizable=0;points=[];fontStyle=1;fontSize=14;" parent="IX6t6DD36pY5l--hHVE1-9" vertex="1" connectable="0">
          <mxGeometry x="-0.4667" y="-1" relative="1" as="geometry">
            <mxPoint as="offset" />
          </mxGeometry>
        </mxCell>
        <mxCell id="IX6t6DD36pY5l--hHVE1-11" value="" style="edgeStyle=orthogonalEdgeStyle;rounded=0;orthogonalLoop=1;jettySize=auto;html=1;entryX=0;entryY=0.5;entryDx=0;entryDy=0;" parent="1" source="IX6t6DD36pY5l--hHVE1-13" target="IX6t6DD36pY5l--hHVE1-16" edge="1">
          <mxGeometry relative="1" as="geometry">
            <mxPoint x="525" y="513" as="targetPoint" />
          </mxGeometry>
        </mxCell>
        <mxCell id="0H7-YZ-VMUyI1cPCvzWG-16" value="No" style="edgeLabel;html=1;align=center;verticalAlign=middle;resizable=0;points=[];fontStyle=1;fontSize=14;" parent="IX6t6DD36pY5l--hHVE1-11" vertex="1" connectable="0">
          <mxGeometry x="0.1273" y="2" relative="1" as="geometry">
            <mxPoint as="offset" />
          </mxGeometry>
        </mxCell>
        <mxCell id="IX6t6DD36pY5l--hHVE1-13" value="Initialization&lt;br&gt;Success?" style="rhombus;whiteSpace=wrap;html=1;rounded=0;" parent="1" vertex="1">
          <mxGeometry x="385" y="473" width="80" height="80" as="geometry" />
        </mxCell>
        <mxCell id="IX6t6DD36pY5l--hHVE1-63" style="edgeStyle=orthogonalEdgeStyle;rounded=0;orthogonalLoop=1;jettySize=auto;html=1;" parent="1" source="IX6t6DD36pY5l--hHVE1-15" edge="1">
          <mxGeometry relative="1" as="geometry">
            <mxPoint x="579.9999999999998" y="758" as="targetPoint" />
          </mxGeometry>
        </mxCell>
        <mxCell id="IX6t6DD36pY5l--hHVE1-15" value="Attach DIO 0 &lt;br&gt;Interrupt" style="whiteSpace=wrap;html=1;rounded=0;" parent="1" vertex="1">
          <mxGeometry x="365" y="643" width="120" height="60" as="geometry" />
        </mxCell>
        <mxCell id="IX6t6DD36pY5l--hHVE1-16" value="END" style="rounded=1;whiteSpace=wrap;html=1;" parent="1" vertex="1">
          <mxGeometry x="520" y="483" width="120" height="60" as="geometry" />
        </mxCell>
        <mxCell id="0H7-YZ-VMUyI1cPCvzWG-1" style="edgeStyle=orthogonalEdgeStyle;rounded=0;orthogonalLoop=1;jettySize=auto;html=1;entryX=0;entryY=0.5;entryDx=0;entryDy=0;" parent="1" source="0H7-YZ-VMUyI1cPCvzWG-3" target="0H7-YZ-VMUyI1cPCvzWG-4" edge="1">
          <mxGeometry relative="1" as="geometry" />
        </mxCell>
        <mxCell id="0H7-YZ-VMUyI1cPCvzWG-2" value="Yes" style="edgeLabel;html=1;align=center;verticalAlign=middle;resizable=0;points=[];fontStyle=1;fontSize=14;" parent="0H7-YZ-VMUyI1cPCvzWG-1" vertex="1" connectable="0">
          <mxGeometry x="-0.4189" relative="1" as="geometry">
            <mxPoint as="offset" />
          </mxGeometry>
        </mxCell>
        <mxCell id="0H7-YZ-VMUyI1cPCvzWG-3" value="Interrupt Triggered" style="rhombus;whiteSpace=wrap;html=1;rounded=0;" parent="1" vertex="1">
          <mxGeometry x="860" y="473" width="95" height="90" as="geometry" />
        </mxCell>
        <mxCell id="0H7-YZ-VMUyI1cPCvzWG-4" value="Update the action Flag" style="rounded=0;whiteSpace=wrap;html=1;" parent="1" vertex="1">
          <mxGeometry x="1100" y="488" width="120" height="60" as="geometry" />
        </mxCell>
        <mxCell id="0H7-YZ-VMUyI1cPCvzWG-5" value="This gets triggered on Reception starts,&lt;div&gt;Transmission ends&lt;/div&gt;" style="text;html=1;strokeColor=#6c8ebf;fillColor=#dae8fc;align=center;verticalAlign=middle;whiteSpace=wrap;rounded=0;" parent="1" vertex="1">
          <mxGeometry x="837.5" y="410" width="140" height="53" as="geometry" />
        </mxCell>
        <mxCell id="0H7-YZ-VMUyI1cPCvzWG-6" style="edgeStyle=orthogonalEdgeStyle;rounded=0;orthogonalLoop=1;jettySize=auto;html=1;entryX=0;entryY=0.5;entryDx=0;entryDy=0;" parent="1" source="0H7-YZ-VMUyI1cPCvzWG-7" target="0H7-YZ-VMUyI1cPCvzWG-3" edge="1">
          <mxGeometry relative="1" as="geometry" />
        </mxCell>
        <mxCell id="0H7-YZ-VMUyI1cPCvzWG-7" value="" style="verticalLabelPosition=top;shadow=0;dashed=0;align=center;html=1;verticalAlign=bottom;strokeWidth=1;shape=mxgraph.mockup.misc.pin;fillColor2=#ffff00;fillColor3=#888800;strokeColor=#999900;" parent="1" vertex="1">
          <mxGeometry x="780" y="488" width="10" height="25" as="geometry" />
        </mxCell>
        <mxCell id="0H7-YZ-VMUyI1cPCvzWG-8" value="Rising Edge" style="shape=image;verticalLabelPosition=bottom;labelBackgroundColor=default;verticalAlign=top;aspect=fixed;imageAspect=0;image=https://www.mathworks.com/help/simscape/lang/edge_op1.png;" parent="1" vertex="1">
          <mxGeometry x="780" y="583" width="188.27" height="100.83" as="geometry" />
        </mxCell>
        <mxCell id="0H7-YZ-VMUyI1cPCvzWG-9" value="DIO 0" style="text;html=1;align=center;verticalAlign=middle;resizable=0;points=[];autosize=1;strokeColor=none;fillColor=none;" parent="1" vertex="1">
          <mxGeometry x="755" y="521" width="50" height="30" as="geometry" />
        </mxCell>
        <mxCell id="ezhr6PAOnXo2CEISF_8j-3" value="" style="edgeStyle=orthogonalEdgeStyle;rounded=0;orthogonalLoop=1;jettySize=auto;html=1;" edge="1" parent="1" source="ezhr6PAOnXo2CEISF_8j-7" target="ezhr6PAOnXo2CEISF_8j-9">
          <mxGeometry relative="1" as="geometry" />
        </mxCell>
        <mxCell id="ezhr6PAOnXo2CEISF_8j-4" value="Yes" style="edgeLabel;html=1;align=center;verticalAlign=middle;resizable=0;points=[];fontSize=14;fontStyle=1" vertex="1" connectable="0" parent="ezhr6PAOnXo2CEISF_8j-3">
          <mxGeometry x="-0.1855" y="2" relative="1" as="geometry">
            <mxPoint x="-1" as="offset" />
          </mxGeometry>
        </mxCell>
        <mxCell id="ezhr6PAOnXo2CEISF_8j-5" style="edgeStyle=orthogonalEdgeStyle;rounded=0;orthogonalLoop=1;jettySize=auto;html=1;entryX=0.5;entryY=1;entryDx=0;entryDy=0;" edge="1" parent="1" source="ezhr6PAOnXo2CEISF_8j-7" target="ezhr6PAOnXo2CEISF_8j-11">
          <mxGeometry relative="1" as="geometry" />
        </mxCell>
        <mxCell id="ezhr6PAOnXo2CEISF_8j-6" value="No" style="edgeLabel;html=1;align=center;verticalAlign=middle;resizable=0;points=[];fontSize=14;fontStyle=1" vertex="1" connectable="0" parent="ezhr6PAOnXo2CEISF_8j-5">
          <mxGeometry x="-0.3059" y="1" relative="1" as="geometry">
            <mxPoint as="offset" />
          </mxGeometry>
        </mxCell>
        <mxCell id="ezhr6PAOnXo2CEISF_8j-7" value="Action flag &lt;br&gt;Triggered?" style="rhombus;whiteSpace=wrap;html=1;" vertex="1" parent="1">
          <mxGeometry x="310" y="1105" width="125" height="130" as="geometry" />
        </mxCell>
        <mxCell id="ezhr6PAOnXo2CEISF_8j-8" value="" style="edgeStyle=orthogonalEdgeStyle;rounded=0;orthogonalLoop=1;jettySize=auto;html=1;" edge="1" parent="1" source="ezhr6PAOnXo2CEISF_8j-9" target="ezhr6PAOnXo2CEISF_8j-31">
          <mxGeometry relative="1" as="geometry" />
        </mxCell>
        <mxCell id="ezhr6PAOnXo2CEISF_8j-9" value="Get the Payload String" style="whiteSpace=wrap;html=1;" vertex="1" parent="1">
          <mxGeometry x="312.5" y="1310" width="120" height="60" as="geometry" />
        </mxCell>
        <mxCell id="ezhr6PAOnXo2CEISF_8j-10" style="edgeStyle=orthogonalEdgeStyle;rounded=0;orthogonalLoop=1;jettySize=auto;html=1;entryX=0.5;entryY=0;entryDx=0;entryDy=0;" edge="1" parent="1" source="ezhr6PAOnXo2CEISF_8j-11" target="ezhr6PAOnXo2CEISF_8j-7">
          <mxGeometry relative="1" as="geometry" />
        </mxCell>
        <mxCell id="ezhr6PAOnXo2CEISF_8j-11" value="Start listen mode" style="rounded=0;whiteSpace=wrap;html=1;" vertex="1" parent="1">
          <mxGeometry x="480" y="1045" width="120" height="60" as="geometry" />
        </mxCell>
        <mxCell id="ezhr6PAOnXo2CEISF_8j-12" value="" style="edgeStyle=orthogonalEdgeStyle;rounded=0;orthogonalLoop=1;jettySize=auto;html=1;" edge="1" parent="1" source="ezhr6PAOnXo2CEISF_8j-16" target="ezhr6PAOnXo2CEISF_8j-18">
          <mxGeometry relative="1" as="geometry" />
        </mxCell>
        <mxCell id="ezhr6PAOnXo2CEISF_8j-13" value="Yes" style="edgeLabel;html=1;align=center;verticalAlign=middle;resizable=0;points=[];fontStyle=1;fontSize=14;" vertex="1" connectable="0" parent="ezhr6PAOnXo2CEISF_8j-12">
          <mxGeometry x="-0.3" y="1" relative="1" as="geometry">
            <mxPoint as="offset" />
          </mxGeometry>
        </mxCell>
        <mxCell id="ezhr6PAOnXo2CEISF_8j-14" value="" style="edgeStyle=orthogonalEdgeStyle;rounded=0;orthogonalLoop=1;jettySize=auto;html=1;" edge="1" parent="1" source="ezhr6PAOnXo2CEISF_8j-16" target="ezhr6PAOnXo2CEISF_8j-20">
          <mxGeometry relative="1" as="geometry">
            <Array as="points">
              <mxPoint x="590" y="1490" />
              <mxPoint x="590" y="1490" />
            </Array>
          </mxGeometry>
        </mxCell>
        <mxCell id="ezhr6PAOnXo2CEISF_8j-15" value="No" style="edgeLabel;html=1;align=center;verticalAlign=middle;resizable=0;points=[];fontStyle=1;fontSize=14;" vertex="1" connectable="0" parent="ezhr6PAOnXo2CEISF_8j-14">
          <mxGeometry x="-0.6492" y="3" relative="1" as="geometry">
            <mxPoint as="offset" />
          </mxGeometry>
        </mxCell>
        <mxCell id="ezhr6PAOnXo2CEISF_8j-16" value="If the payload&amp;nbsp;&lt;br&gt;Is &quot;Tx Done&quot;" style="rhombus;whiteSpace=wrap;html=1;" vertex="1" parent="1">
          <mxGeometry x="520" y="1270" width="140" height="140" as="geometry" />
        </mxCell>
        <mxCell id="ezhr6PAOnXo2CEISF_8j-17" value="" style="edgeStyle=orthogonalEdgeStyle;rounded=0;orthogonalLoop=1;jettySize=auto;html=1;" edge="1" parent="1" source="ezhr6PAOnXo2CEISF_8j-18" target="ezhr6PAOnXo2CEISF_8j-24">
          <mxGeometry relative="1" as="geometry" />
        </mxCell>
        <mxCell id="ezhr6PAOnXo2CEISF_8j-18" value="Remove the Interrupt&amp;nbsp;&amp;nbsp;" style="whiteSpace=wrap;html=1;" vertex="1" parent="1">
          <mxGeometry x="820" y="1310" width="120" height="60" as="geometry" />
        </mxCell>
        <mxCell id="ezhr6PAOnXo2CEISF_8j-19" style="edgeStyle=orthogonalEdgeStyle;rounded=0;orthogonalLoop=1;jettySize=auto;html=1;exitX=0;exitY=0.5;exitDx=0;exitDy=0;entryX=0.25;entryY=0;entryDx=0;entryDy=0;" edge="1" parent="1" source="ezhr6PAOnXo2CEISF_8j-20" target="ezhr6PAOnXo2CEISF_8j-11">
          <mxGeometry relative="1" as="geometry">
            <Array as="points">
              <mxPoint x="240" y="1640" />
              <mxPoint x="240" y="1010" />
              <mxPoint x="510" y="1010" />
            </Array>
          </mxGeometry>
        </mxCell>
        <mxCell id="ezhr6PAOnXo2CEISF_8j-20" value="Update the state data&amp;nbsp;" style="whiteSpace=wrap;html=1;" vertex="1" parent="1">
          <mxGeometry x="520" y="1610" width="120" height="60" as="geometry" />
        </mxCell>
        <mxCell id="ezhr6PAOnXo2CEISF_8j-21" style="edgeStyle=orthogonalEdgeStyle;rounded=0;orthogonalLoop=1;jettySize=auto;html=1;entryX=1;entryY=0.5;entryDx=0;entryDy=0;" edge="1" parent="1" source="ezhr6PAOnXo2CEISF_8j-22" target="ezhr6PAOnXo2CEISF_8j-11">
          <mxGeometry relative="1" as="geometry">
            <Array as="points">
              <mxPoint x="800" y="1075" />
            </Array>
          </mxGeometry>
        </mxCell>
        <mxCell id="ezhr6PAOnXo2CEISF_8j-22" value="Reset the state data" style="whiteSpace=wrap;html=1;" vertex="1" parent="1">
          <mxGeometry x="760" y="1045" width="120" height="60" as="geometry" />
        </mxCell>
        <mxCell id="ezhr6PAOnXo2CEISF_8j-23" value="" style="edgeStyle=orthogonalEdgeStyle;rounded=0;orthogonalLoop=1;jettySize=auto;html=1;" edge="1" parent="1" source="ezhr6PAOnXo2CEISF_8j-24" target="ezhr6PAOnXo2CEISF_8j-26">
          <mxGeometry relative="1" as="geometry" />
        </mxCell>
        <mxCell id="ezhr6PAOnXo2CEISF_8j-24" value="Calculate and send the data to our Google sheet" style="whiteSpace=wrap;html=1;" vertex="1" parent="1">
          <mxGeometry x="1010" y="1310" width="120" height="60" as="geometry" />
        </mxCell>
        <mxCell id="ezhr6PAOnXo2CEISF_8j-25" style="edgeStyle=orthogonalEdgeStyle;rounded=0;orthogonalLoop=1;jettySize=auto;html=1;entryX=1;entryY=0.5;entryDx=0;entryDy=0;" edge="1" parent="1" source="ezhr6PAOnXo2CEISF_8j-26" target="ezhr6PAOnXo2CEISF_8j-22">
          <mxGeometry relative="1" as="geometry" />
        </mxCell>
        <mxCell id="ezhr6PAOnXo2CEISF_8j-26" value="Re attach the Interrupt" style="whiteSpace=wrap;html=1;" vertex="1" parent="1">
          <mxGeometry x="1010" y="1045" width="120" height="60" as="geometry" />
        </mxCell>
        <mxCell id="ezhr6PAOnXo2CEISF_8j-27" style="edgeStyle=orthogonalEdgeStyle;rounded=0;orthogonalLoop=1;jettySize=auto;html=1;entryX=0;entryY=0.5;entryDx=0;entryDy=0;" edge="1" parent="1" source="ezhr6PAOnXo2CEISF_8j-31" target="ezhr6PAOnXo2CEISF_8j-16">
          <mxGeometry relative="1" as="geometry" />
        </mxCell>
        <mxCell id="ezhr6PAOnXo2CEISF_8j-28" value="Yes" style="edgeLabel;html=1;align=center;verticalAlign=middle;resizable=0;points=[];fontStyle=1;fontSize=14;" vertex="1" connectable="0" parent="ezhr6PAOnXo2CEISF_8j-27">
          <mxGeometry x="0.3215" y="-2" relative="1" as="geometry">
            <mxPoint as="offset" />
          </mxGeometry>
        </mxCell>
        <mxCell id="ezhr6PAOnXo2CEISF_8j-29" style="edgeStyle=orthogonalEdgeStyle;rounded=0;orthogonalLoop=1;jettySize=auto;html=1;" edge="1" parent="1" source="ezhr6PAOnXo2CEISF_8j-31" target="ezhr6PAOnXo2CEISF_8j-33">
          <mxGeometry relative="1" as="geometry" />
        </mxCell>
        <mxCell id="ezhr6PAOnXo2CEISF_8j-30" value="No" style="edgeLabel;html=1;align=center;verticalAlign=middle;resizable=0;points=[];fontStyle=1" vertex="1" connectable="0" parent="ezhr6PAOnXo2CEISF_8j-29">
          <mxGeometry x="0.0295" relative="1" as="geometry">
            <mxPoint y="-6" as="offset" />
          </mxGeometry>
        </mxCell>
        <mxCell id="ezhr6PAOnXo2CEISF_8j-31" value="Is reception Successful ?" style="rhombus;whiteSpace=wrap;html=1;" vertex="1" parent="1">
          <mxGeometry x="323.75" y="1420" width="97.5" height="110" as="geometry" />
        </mxCell>
        <mxCell id="ezhr6PAOnXo2CEISF_8j-32" style="edgeStyle=orthogonalEdgeStyle;rounded=0;orthogonalLoop=1;jettySize=auto;html=1;exitX=0;exitY=0.5;exitDx=0;exitDy=0;entryX=0.125;entryY=0.001;entryDx=0;entryDy=0;entryPerimeter=0;" edge="1" parent="1" source="ezhr6PAOnXo2CEISF_8j-33" target="ezhr6PAOnXo2CEISF_8j-11">
          <mxGeometry relative="1" as="geometry">
            <mxPoint x="160" y="1040" as="targetPoint" />
            <Array as="points">
              <mxPoint x="280" y="1590" />
              <mxPoint x="280" y="1030" />
              <mxPoint x="495" y="1030" />
            </Array>
          </mxGeometry>
        </mxCell>
        <mxCell id="ezhr6PAOnXo2CEISF_8j-33" value="Log the error" style="rounded=0;whiteSpace=wrap;html=1;" vertex="1" parent="1">
          <mxGeometry x="313" y="1560" width="120" height="60" as="geometry" />
        </mxCell>
        <mxCell id="ezhr6PAOnXo2CEISF_8j-34" value="&lt;h1&gt;State types&lt;/h1&gt;&lt;p&gt;We will calculate&lt;/p&gt;&lt;p&gt;&lt;/p&gt;&lt;ul&gt;&lt;li&gt;RX number of packets&lt;/li&gt;&lt;li&gt;Max,Min, AVG RSSI&lt;/li&gt;&lt;li&gt;AVG SNR&lt;/li&gt;&lt;li&gt;Freq. Error&lt;/li&gt;&lt;/ul&gt;&lt;p&gt;&lt;/p&gt;" style="text;html=1;strokeColor=#6c8ebf;fillColor=#dae8fc;spacing=5;spacingTop=-20;whiteSpace=wrap;overflow=hidden;rounded=0;" vertex="1" parent="1">
          <mxGeometry x="785" y="1130" width="190" height="156" as="geometry" />
        </mxCell>
        <mxCell id="ezhr6PAOnXo2CEISF_8j-35" value="&lt;h1&gt;Acquired&amp;nbsp;data&lt;/h1&gt;&lt;p&gt;From the serial&amp;nbsp; monitor, we can get the current time stamp of the packet reception end.&lt;/p&gt;&lt;p&gt;and Transmission starts.&lt;/p&gt;&lt;p&gt;&lt;/p&gt;" style="text;html=1;strokeColor=#6c8ebf;fillColor=#dae8fc;spacing=5;spacingTop=-20;whiteSpace=wrap;overflow=hidden;rounded=0;" vertex="1" parent="1">
          <mxGeometry x="785" y="1397" width="190" height="156" as="geometry" />
        </mxCell>
      </root>
    </mxGraphModel>
  </diagram>
</mxfile>
